<?xml version="1.0" encoding="utf-8"?>
<!-- Generator: Adobe Illustrator 19.1.0, SVG Export Plug-In . SVG Version: 6.00 Build 0)  -->
<svg version="1.1" id="Layer_1" xmlns="http://www.w3.org/2000/svg" xmlns:xlink="http://www.w3.org/1999/xlink" x="0px" y="0px"
	 viewBox="88 -236 392.8 688" style="enable-background:new 88 -236 392.8 688;" xml:space="preserve">
<style type="text/css">
	.st0{display:none;opacity:8.000000e-02;enable-background:new    ;}
	.st1{display:none;}
	.st2{display:inline;}
	.st3{fill:#FFFFFF;}
</style>
<g id="Layer_1_1_">
</g>
<g id="Layer_3">
</g>
<g id="Layer_2">
	<g>
		<path d="M109.8,31.7c0-2.6,5.3-3.7,9.1-3.7h332.3c3.7,0,4.7,1.1,4.7,3.7V386c0,2.6-1.7,5.7-5,6.9l-159,58.2
			c-3.3,1.2-8.4,1.2-11.7,0l-163.4-58.2c-3.3-1.2-7-4.3-7-6.9V31.7z"/>
		<path class="st0" d="M126.5,143c0,0,161.3,34,315.5-0.1v-17.5c0,0-141.9,28.5-315.5,0.1V143z"/>
		<polygon points="443.7,164.7 443.7,124 122,124 		"/>
		<g class="st1">
			<g class="st2">
				<g>
					<polygon class="st3" points="150.5,365.7 150.5,190.8 129.2,190.8 129.2,116.8 229.6,116.8 229.6,365.7 					"/>
					<path d="M216.3,130.1v222.2h-52.4V177.4h-21.3v-47.3H216.3 M242.9,103.4h-26.7h-73.6h-26.7v26.7v47.3v26.7h21.3v148.3V379h26.7
						h52.4H243v-26.7V130.1L242.9,103.4L242.9,103.4z"/>
				</g>
				<g>
					<polygon class="st3" points="255.2,365.2 328.9,189.7 243.6,189.7 243.6,115.8 446.2,115.8 336.3,365.2 					"/>
					<path d="M425.8,129.1l-98.2,222.8h-52.4L349,176.4h-92v-47.3H425.8 M466.7,102.4h-40.9H256.9h-26.7v26.7v47.3v26.7h26.7h51.9
						l-58.2,138.4l-15.6,37h40.2h52.4H345l7-15.9l98.2-222.8L466.7,102.4L466.7,102.4z"/>
				</g>
			</g>
		</g>
		<g>
			<path class="st3" d="M467.9,106.5c0,0-165.8,52.8-367.4,0V-0.3c186,48.4,367.4,0,367.4,0V106.5z"/>
			<path d="M464.9,3.7v102.8c0,0-71,23.5-178.1,23.5c-53.5,0-116.1-5.9-183.3-23.5V3.7c62,16.1,122.8,21.5,176.3,21.5
				C386.9,25.2,464.9,3.7,464.9,3.7 M480.4-16.7l-19.7,5.4c-0.8,0.2-77.5,21-180.9,21c-60.8,0-118.8-7.1-172.4-21l-19.5-5.1V3.8
				v102.8v12l11.6,3c60.7,15.9,123.7,24,187.2,24c108.3,0,180-23.3,183-24.3l10.7-3.5v-11.3V3.7L480.4-16.7L480.4-16.7z"/>
		</g>
		<g>
			<path d="M480.7-16.8l-19.9-9.9v-209.8H105.9V-25l-18.2,9L106-3.3V-3h0.4l1.1,0.8l0.1-0.8h6.2l0,0c0,0,170.4,51.2,344.5,0.8h2.6
				V-3h0.1L480.7-16.8z"/>
		</g>
		<g class="st1">
			<g class="st2">
				<g>
					<g>
						<g>
							<g>
								<polygon class="st3" points="228,-31.5 227,-31.5 227,-73 228,-73 								"/>
							</g>
							<g>
								<g>
									<path class="st3" d="M195.9-70.8c-5.1,0-9.7,2-13,5.3l0,0c-3.3,3.3-5.4,7.8-5.4,12.8l0,0c0,5,2.1,9.6,5.4,12.8l0,0
										c3.3,3.3,7.9,5.3,13,5.3l0,0c5.1,0,9.7-2,13-5.3l0,0c3.3-3.3,5.4-7.8,5.4-12.8l0,0c0-5-2.1-9.6-5.4-12.8l0,0
										C205.6-68.8,201-70.8,195.9-70.8L195.9-70.8 M210.5-67L210.5-67 M195.9-73c11.4,0,20.6,9.1,20.6,20.4l0,0
										c0,11.3-9.2,20.4-20.6,20.4l0,0c-11.4,0-20.6-9.1-20.6-20.4l0,0C175.3-63.9,184.5-73,195.9-73L195.9-73 M181.4-67L181.4-67
										"/>
								</g>
								<g>
									<path class="st3" d="M186.2-52.8c0-1.2-0.8-1.9-1.9-1.9h-0.7v3.7h0.7C185.3-50.9,186.2-51.5,186.2-52.8L186.2-52.8z
										 M198.5-51.4l-5.1,4l-4.7-3.6c-0.7,1.6-2.3,2.7-4.2,2.7h-4v-8.8h4c2.1,0,3.6,1.3,4.2,2.7l4.7-3.6l1.7,1.3l-4.3,3.3l0.8,0.6
										l4.3-3.3l1.7,1.3l-4.3,3.3l0.8,0.6l4.3-3.3v-3h3.1v6.2h3.1v2.6h-6.2v-3H198.5z M208.6-51h3.1v2.6h-6.2v-8.8h3.1V-51
										L208.6-51z"/>
								</g>
							</g>
						</g>
					</g>
					<g>
						<g>
							<path class="st3" d="M237.7-62.8l12.6-1.7v12h-12.6 M251.9-64.8l16.7-2.4v14.6h-16.7 M237.7-51.2h12.6v12.1l-12.6-1.7
								 M251.9-51.1h16.7v14.4L251.9-39"/>
						</g>
						<g>
							<g>
								<path class="st3" d="M279.1-61.1c0.7,0,1.4,0,2.1,0c1.1,4,2.2,8,3.3,11.9c0.2,0.8,0.4,1.7,0.5,2.6c1.2-4.9,2.7-9.7,4.1-14.5
									c0.6,0,1.2,0,1.8,0c1,3.4,1.9,6.9,2.9,10.4c0.4,1.4,0.8,2.7,1,4.1c1-4.9,2.5-9.6,3.7-14.5c0.7,0,1.4,0,2.1,0
									c-1.5,5.5-3.1,11.1-4.7,16.6h-2.3c-1.1-4-2.2-8-3.4-11.9c-0.2-0.6-0.3-1.3-0.3-2c-0.1,0.6-0.2,1.2-0.3,1.7
									c-1.1,4-2.3,8.1-3.4,12.1c-0.8,0-1.5,0-2.3,0C282.3-50,280.7-55.5,279.1-61.1"/>
							</g>
							<g>
								<path class="st3" d="M301.9-60.9c0.1-0.7,0.7-1.2,1.4-1.1c0.7,0.1,1.2,0.7,1.1,1.4s-0.7,1.2-1.4,1.1c-0.6-0.1-1-0.5-1.1-1.1
									 M302.2-56.4h1.9v11.9h-1.9"/>
							</g>
							<g>
								<path class="st3" d="M309.1-54.5c1.1-1.9,3.6-2.8,5.6-1.9c1.6,0.6,2.2,2.5,2.3,4.1c0.1,2.6,0,5.2,0,7.8c-0.6,0-1.3,0-1.9,0
									c0-2.5,0.1-5,0-7.5c-0.1-1.2-0.6-2.7-1.9-3c-2-0.6-4,1.2-4,3.1c-0.1,2.5,0,5,0,7.4h-1.9c0-4,0-7.9,0-11.9h1.9
									C309.1-55.7,309.1-55.1,309.1-54.5"/>
							</g>
							<g>
								<path class="st3" d="M328.4-62c0.6,0,1.3,0,1.9,0v17.5h-1.9c0-0.6,0-1.3-0.1-1.9c-1.4,2.4-5,3-7.1,1.2
									c-1.5-1.3-1.9-3.3-1.9-5.2s0.6-3.9,2.2-5.2c2-1.6,5.5-1.5,6.9,0.9C328.3-57.2,328.4-59.6,328.4-62 M324.3-55.1
									c-1.5,0.2-2.5,1.6-2.8,3c-0.4,1.7-0.3,3.7,0.8,5.1c1.2,1.5,3.8,1.6,5,0.1c0.9-0.9,1.1-2.1,1.1-3.3c0-1.3,0.1-2.7-0.7-3.7
									C326.9-54.9,325.5-55.3,324.3-55.1"/>
							</g>
							<g>
								<path class="st3" d="M337.6-56.7c1.7-0.1,3.6,0.1,4.8,1.3c1.4,1.3,1.9,3.4,1.8,5.2c0,1.7-0.6,3.4-1.9,4.5
									c-2.6,2.3-7.4,1.8-9-1.4c-1.3-2.7-1-6.4,1.3-8.4C335.5-56.1,336.6-56.4,337.6-56.7 M337.3-55c-2.8,0.8-3.2,4.5-2.4,6.8
									c0.7,2.1,3.4,3,5.3,2.1c1.3-0.6,1.9-2.1,2-3.4c0.1-1.6,0-3.3-1.1-4.6C340.2-55.1,338.6-55.4,337.3-55"/>
							</g>
							<g>
								<path class="st3" d="M345-56.4h2c0.8,2.8,1.5,5.7,2.3,8.5c0.2,0.5,0.2,1.1,0.3,1.6c0.9-3.4,2-6.8,3-10.1h1.7
									c0.9,3.4,1.9,6.7,2.7,10.1c0.7-3.4,1.8-6.7,2.6-10.1c0.6,0,1.3,0,1.9,0c-1.2,4-2.4,8-3.6,11.9h-2c-0.9-3.2-2-6.4-2.6-9.7
									c-0.8,3.3-2,6.4-2.9,9.7h-1.9C347.4-48.4,346.2-52.4,345-56.4"/>
							</g>
							<g>
								<path class="st3" d="M366.3-56.7c1.2-0.1,2.4,0,3.5,0.5c0.3,0.6,0.1,1.3,0.1,2c-1.3-0.8-3.2-1.4-4.6-0.5
									c-1,0.5-1,2.1-0.1,2.7c1.4,0.9,3.1,1.1,4.4,2.3c1.3,1.3,1,3.8-0.6,4.7c-1.9,1.2-4.5,1.1-6.5,0.2c0-0.7,0-1.4,0-2.1
									c1.4,1.1,3.4,1.7,5.2,0.9c1-0.5,1.1-2,0.2-2.7c-1.4-1-3.3-1.2-4.5-2.4s-1-3.4,0.4-4.5C364.5-56.2,365.4-56.4,366.3-56.7"/>
							</g>
							<g>
								<path class="st3" d="M379.5-61.3c0.2,0,0.5-0.1,0.7-0.1c0,5.7,0,11.3,0,17h-1.9c0-4.7,0-9.4,0-14.1
									c-1.2,0.8-2.5,1.5-3.9,1.9c0-0.6,0-1.3,0-1.9C376.3-59.2,378-60.2,379.5-61.3"/>
							</g>
							<g>
								<path class="st3" d="M387.1-61.4c1.6-0.3,3.5,0.3,4.4,1.7c1.4,1.9,1.5,4.4,1.6,6.7c0,2.4-0.3,5.1-1.9,7
									c-1.4,1.9-4.4,2.3-6.3,0.9c-1.6-1.1-2.2-3.1-2.5-4.9c-0.3-2.7-0.3-5.5,0.7-8.1C383.7-59.6,385.2-61.1,387.1-61.4
									 M386.8-59.7c-1.7,0.7-2.2,2.7-2.4,4.3c-0.2,2.2-0.3,4.5,0.2,6.7c0.3,1.1,0.8,2.2,1.9,2.7c1.2,0.6,2.9,0.1,3.5-1.1
									c1-1.8,1.1-3.9,1.1-5.9c0-1.9-0.1-4-1.2-5.7C389.3-59.7,387.9-60.1,386.8-59.7"/>
							</g>
						</g>
					</g>
				</g>
			</g>
			<g class="st2">
				<g>
					<g>
						<g>
							<path class="st3" d="M244.6-175.5c1.5,0.6,2.8,1.5,3.8,2.5c1.1,1,1.9,2.3,2.6,3.7c0.7,1.5,1,3,1,4.6v58.9
								c0,0.5-0.2,1-0.6,1.4c-0.4,0.4-0.8,0.6-1.4,0.6h-14.4c-0.6,0-1-0.2-1.4-0.6c-0.3-0.4-0.5-0.8-0.5-1.4v-53.5h-11.6v53.6
								c0,0.5-0.2,1-0.5,1.4s-0.8,0.6-1.4,0.6h-13.1c-0.6,0-1-0.2-1.4-0.6c-0.4-0.4-0.6-0.8-0.6-1.4v-53.6h-11.6v53.6
								c0,1.3-0.7,1.9-2,1.9h-14.2c-1.3,0-2-0.6-2-1.9v-68.9c0-1.3,0.7-1.9,2-1.9h62.6C241.6-176.5,243.1-176.2,244.6-175.5z"/>
						</g>
						<g>
							<path class="st3" d="M244.6-175.5c1.5,0.6,2.8,1.5,3.8,2.5c1.1,1,1.9,2.3,2.6,3.7c0.7,1.5,1,3,1,4.6v5.3l-18.3,0.1h-11.6
								h-16.9h-11.6l-18.3-0.1v-15.2c0-1.3,0.7-1.9,2-1.9h62.6C241.6-176.5,243.1-176.2,244.6-175.5z"/>
						</g>
					</g>
					<g>
						<g>
							<path class="st3" d="M315-121.5c0.6,0,1.1,0.2,1.4,0.6c0.4,0.4,0.6,0.8,0.6,1.4v13.7c0,0.6-0.2,1-0.6,1.4s-0.8,0.6-1.4,0.6
								h-49.4c-1.4,0-2.1-0.7-2.1-2v-68.7c0-1.3,0.7-2,2.1-2h15.2c1.4,0,2.1,0.7,2.1,2v51.2c0,0.6,0.2,1,0.6,1.4
								c0.4,0.3,0.9,0.5,1.5,0.5L315-121.5L315-121.5z"/>
						</g>
						<g>
							<path class="st3" d="M282.7-103.8h-17.1c-1.4,0-2.1-0.7-2.1-2v-68.7c0-1.3,0.7-2,2.1-2h15.1c1.4,0,2.1,0.7,2.1,2v51.2
								C282.8-122.8,282.7-103.8,282.7-103.8z"/>
						</g>
					</g>
					<g>
						<g>
							<path class="st3" d="M391-176.5c0.6,0,1.1,0.2,1.5,0.6c0.4,0.4,0.6,0.9,0.6,1.4v69c0,0.6-0.2,1-0.6,1.4s-0.9,0.6-1.5,0.6
								h-15.4c-0.6,0-1.1-0.2-1.5-0.6c-0.4-0.4-0.6-0.8-0.6-1.4v-24.1c0-0.6-0.2-1-0.6-1.4c-0.4-0.3-0.8-0.5-1.4-0.5h-21.6
								c-0.6,0-1.1,0.2-1.5,0.5s-0.6,0.8-0.6,1.4v24.1c0,1.3-0.7,2-2.1,2h-15.3c-1.4,0-2.1-0.7-2.1-2v-69c0-1.3,0.7-2,2.1-2h15.3
								c1.4,0,2.1,0.7,2.1,2v23.3c0,1.3,0.7,2,2.1,2h21.6c0.6,0,1.1-0.2,1.4-0.6c0.4-0.4,0.6-0.8,0.6-1.4v-23.3c0-0.6,0.2-1,0.6-1.4
								c0.4-0.4,0.9-0.6,1.5-0.6H391z"/>
						</g>
						<g>
							<path class="st3" d="M347.8-129.6v24.1c0,1.3-0.7,2-2.1,2h-15.3c-1.4,0-2.1-0.7-2.1-2v-69c0-1.3,0.7-2,2.1-2h15.3
								c1.4,0,2.1,0.7,2.1,2v23.3C347.8-149.9,347.8-130.2,347.8-129.6z"/>
						</g>
						<g>
							<path class="st3" d="M391-176.5c0.6,0,1.1,0.2,1.5,0.6c0.4,0.4,0.6,0.9,0.6,1.4v69c0,0.6-0.2,1-0.6,1.4s-0.9,0.6-1.5,0.6
								h-15.4c-0.6,0-1.1-0.2-1.5-0.6c-0.4-0.4-0.6-0.8-0.6-1.4v-24.1c0-0.6,0-21,0-21.6v-23.3c0-0.6,0.2-1,0.6-1.4
								c0.4-0.4,0.9-0.6,1.5-0.6H391z"/>
						</g>
					</g>
				</g>
			</g>
			<g class="st2">
				<g>
					<g>
						<path class="st3" d="M247.7-90.6c0,1-0.3,1.7-1,2.3c-0.7,0.5-1.6,0.8-2.9,0.8h-1.6v4.2h-0.7v-10.2h2.5
							C246.5-93.6,247.7-92.6,247.7-90.6z M242.3-88.2h1.4c1.2,0,2-0.2,2.5-0.6c0.5-0.4,0.8-1,0.8-1.8s-0.2-1.4-0.7-1.8
							c-0.5-0.4-1.2-0.6-2.2-0.6h-1.7v4.8H242.3z"/>
					</g>
					<g>
						<path class="st3" d="M258.5-88.5c0,1.6-0.4,2.9-1.2,3.8c-0.8,0.9-1.9,1.4-3.4,1.4c-1.4,0-2.5-0.5-3.3-1.4s-1.2-2.2-1.2-3.9
							c0-1.6,0.4-2.9,1.2-3.8c0.8-0.9,1.9-1.4,3.4-1.4c1.4,0,2.5,0.5,3.3,1.4C258.1-91.4,258.5-90.1,258.5-88.5z M250.2-88.5
							c0,1.5,0.3,2.6,1,3.4c0.7,0.8,1.6,1.2,2.8,1.2s2.2-0.4,2.8-1.2c0.6-0.8,1-1.9,1-3.4s-0.3-2.6-1-3.4c-0.6-0.8-1.6-1.2-2.8-1.2
							s-2.2,0.4-2.8,1.2S250.2-89.9,250.2-88.5z"/>
					</g>
					<g>
						<path class="st3" d="M269-83.4h-0.6l-2.2-7.9c-0.2-0.6-0.3-1.2-0.4-1.6c-0.1,0.4-0.2,0.9-0.3,1.4s-0.9,3.2-2.3,8.1h-0.6
							l-2.8-10.2h0.7l1.8,6.6c0.1,0.3,0.1,0.5,0.2,0.7c0.1,0.2,0.1,0.4,0.2,0.6c0,0.2,0.1,0.4,0.1,0.6c0,0.2,0.1,0.4,0.1,0.6
							c0.1-0.6,0.3-1.6,0.7-2.9l1.7-6.2h0.8l2,7.1c0.2,0.8,0.4,1.5,0.5,2c0.1-0.3,0.1-0.7,0.2-1.1c0.1-0.4,0.8-3.1,2.2-8h0.7
							L269-83.4z"/>
					</g>
					<g>
						<path class="st3" d="M279.2-83.4h-5.6v-10.2h5.6v0.7h-4.9v3.9h4.6v0.7h-4.6v4.4h4.9V-83.4z"/>
					</g>
					<g>
						<path class="st3" d="M282.2-87.8v4.5h-0.7v-10.2h2.4c1.3,0,2.2,0.2,2.8,0.7c0.6,0.5,0.9,1.2,0.9,2.1c0,0.7-0.2,1.3-0.5,1.7
							c-0.4,0.5-0.9,0.8-1.6,1l2.8,4.7h-0.9l-2.6-4.5H282.2z M282.2-88.4h1.9c0.9,0,1.5-0.2,2-0.6c0.5-0.4,0.7-1,0.7-1.7
							c0-0.8-0.2-1.3-0.7-1.7s-1.2-0.5-2.3-0.5h-1.7v4.5H282.2z"/>
					</g>
					<g>
						<path class="st3" d="M295.6-83.4H290v-10.2h5.6v0.7h-4.9v3.9h4.6v0.7h-4.6v4.4h4.9V-83.4z"/>
					</g>
					<g>
						<path class="st3" d="M305.7-88.6c0,1.7-0.4,3-1.3,3.9s-2.2,1.3-4,1.3H298v-10.2h2.8c1.6,0,2.9,0.4,3.7,1.3
							S305.7-90.2,305.7-88.6z M304.9-88.5c0-1.5-0.4-2.6-1.1-3.3s-1.8-1.1-3.3-1.1h-1.9v9h1.7C303.4-84,304.9-85.5,304.9-88.5z"/>
					</g>
					<g>
						<path class="st3" d="M311.7-93.6h2.8c1.3,0,2.2,0.2,2.8,0.6c0.6,0.4,0.9,1.1,0.9,1.9c0,0.6-0.2,1.1-0.5,1.5
							c-0.4,0.4-0.9,0.6-1.6,0.8l0,0c0.8,0.1,1.4,0.4,1.8,0.8c0.4,0.4,0.6,0.9,0.6,1.6c0,0.9-0.3,1.7-0.9,2.2s-1.5,0.8-2.7,0.8h-3.1
							L311.7-93.6L311.7-93.6z M312.5-89h2.2c1,0,1.7-0.2,2.1-0.5c0.4-0.3,0.7-0.8,0.7-1.5s-0.2-1.2-0.7-1.5s-1.2-0.5-2.2-0.5h-2.1
							V-89z M312.5-88.4v4.4h2.4c1.9,0,2.8-0.8,2.8-2.3c0-1.4-1-2.1-3-2.1L312.5-88.4L312.5-88.4z"/>
					</g>
					<g>
						<path class="st3" d="M323.1-88l3-5.6h0.8l-3.4,6.3v3.9h-0.7v-3.9l-3.4-6.3h0.8L323.1-88z"/>
					</g>
				</g>
				<g>
					<g>
						<rect x="330.9" y="-89.3" class="st3" width="62.2" height="3"/>
					</g>
					<g>
						<rect x="175.3" y="-89.3" class="st3" width="62.2" height="3"/>
					</g>
				</g>
			</g>
		</g>
	</g>
	<g>
		<g>
			<path d="M162.2,94.7c-12.7-2.2-19-3.5-31.5-6.3c0-4.3,0-6.5,0-10.8c10,2.2,15.1,3.3,25.1,5.1c0-3.8,0-5.7,0-9.6
				c-7.5-1.4-11.3-2.1-18.8-3.7c-1.7-0.4-3.2-1.2-4.5-2.5c-1.3-1.3-1.9-2.8-1.9-4.3c0-8-0.1-12-0.1-19.9c0-1.5,0.6-2.6,1.9-3.4
				s2.8-1,4.5-0.6c12.6,2.7,18.9,3.9,31.5,6c0,4.3,0,6.5,0,10.8c-10.1-1.7-15.1-2.6-25.1-4.7c0,3.6,0,5.4,0,9
				c7.5,1.5,11.3,2.2,18.8,3.6c1.7,0.3,3.2,1.1,4.4,2.3c1.2,1.3,1.9,2.7,1.9,4.2c0,8.2,0,12.2,0.1,20.4c0,1.6-0.6,2.8-1.8,3.6
				C165.4,94.7,164,95,162.2,94.7z"/>
			<path d="M191,59.2c0,3.7,0,5.6,0,9.3c6.2,0.8,9.3,1.2,15.5,1.9c0,4.3,0,6.4,0,10.7c-6.2-0.7-9.3-1.1-15.5-1.9c0,3.7,0,5.5,0,9.2
				c11.2,1.5,16.9,2.1,28.1,3.2c0,4.3,0,6.4,0,10.7c-16.3-1.5-24.4-2.5-40.6-4.9c-0.1-20.4-0.1-30.5-0.2-50.9
				c16.2,2.5,24.4,3.4,40.7,5c0,4.4,0,6.6,0,10.9C207.9,61.3,202.2,60.7,191,59.2z"/>
			<path d="M265.7,105.1c-1.7-4.8-2.5-7.3-4.2-12.1c-8.1-0.3-12.1-0.4-20.2-0.9c-1.7,4.7-2.6,7-4.3,11.7c-5.3-0.4-7.9-0.6-13.2-1
				c7.1-19.7,10.6-29.6,17.7-49.5c7.8,0.5,11.7,0.7,19.6,0.9c5.9,17,11.9,34.1,17.8,51.1C273.6,105.3,271,105.2,265.7,105.1z
				 M251.4,64.5c-2.5,6.7-3.7,10.1-6.2,16.8c4.9,0.3,7.4,0.4,12.3,0.6C255,74.9,253.8,71.5,251.4,64.5z"/>
			<path d="M316.4,104.6c-12.8,0.6-19.2,0.7-32,0.8c0-4.3,0-6.5,0-10.8c10.2,0,15.3-0.1,25.5-0.5c0-3.8,0-5.7,0-9.5
				c-7.6,0.3-11.4,0.4-19.1,0.5c-1.7,0-3.3-0.5-4.5-1.5c-1.3-1-1.9-2.3-1.9-3.9c0-8,0-11.9,0-19.9c0-1.5,0.6-2.7,1.9-3.8
				c1.3-1.1,2.8-1.6,4.6-1.6c12.8-0.1,19.2-0.3,31.9-1c0,4.3,0,6.5,0,10.8c-10.2,0.6-15.2,0.8-25.4,1c0,3.6,0,5.4,0,9
				c7.6-0.1,11.4-0.3,19.1-0.6c1.7-0.1,3.2,0.4,4.5,1.3c1.2,1,1.9,2.2,1.9,3.8c0,8.2,0,12.2,0,20.4c0,1.6-0.6,2.9-1.9,4
				C319.6,103.9,318.1,104.5,316.4,104.6z"/>
			<path d="M371.4,99.8c-12.4,1.6-18.6,2.2-31,3.2c-1.7,0.1-3.2-0.2-4.5-1.2c-1.2-0.9-1.9-2.2-1.9-3.7c0-16.1,0-24.1,0.1-40.2
				c0-1.5,0.6-2.8,1.9-3.9c1.2-1.1,2.7-1.8,4.5-1.9c12.4-1,18.6-1.6,31-3.2c1.7-0.2,3.2,0.1,4.5,1c1.2,0.9,1.9,2.1,1.8,3.5
				c0,16.1-0.1,24.1-0.1,40.2c0,1.6-0.6,2.9-1.9,4.1C374.6,98.9,373.1,99.6,371.4,99.8z M346.9,91.6c7.3-0.7,10.9-1,18.1-1.9
				c0-11.7,0-17.5,0.1-29.2c-7.2,0.8-10.9,1.2-18.1,1.9C346.9,74.1,346.9,80,346.9,91.6z"/>
			<path d="M436.8,88.4c-4.4,1-6.6,1.5-11,2.4c-9.6-11.8-14.3-17.8-24-29.9c0,13.8-0.1,20.7-0.1,34.5c-5,0.9-7.5,1.3-12.6,2
				c0.1-20.4,0.1-30.5,0.2-50.9c7.3-1.1,10.9-1.7,18.1-3c6.8,8.6,10.1,12.8,16.9,21.2c0-9.8,0.1-14.7,0.1-24.5
				c5.1-1,7.6-1.6,12.6-2.7C437,57.9,436.9,68,436.8,88.4z"/>
		</g>
	</g>
	<g>
		<g>
			<g>
				<path class="st3" d="M168.4-78.5c0.3,0.1,0.5,0.3,0.7,0.5c0.2,0.2,0.4,0.4,0.5,0.7c0.1,0.3,0.2,0.6,0.2,0.9v11
					c0,0.1,0,0.2-0.1,0.3s-0.2,0.1-0.3,0.1h-2.7c-0.1,0-0.2,0-0.3-0.1s-0.1-0.2-0.1-0.3v-9.9h-2.2v9.9c0,0.1,0,0.2-0.1,0.3
					s-0.1,0.1-0.3,0.1h-2.4c-0.1,0-0.2,0-0.3-0.1s-0.1-0.2-0.1-0.3v-9.9h-2.2v9.9c0,0.2-0.1,0.4-0.4,0.4h-2.7
					c-0.2,0-0.4-0.1-0.4-0.4v-12.9c0-0.2,0.1-0.4,0.4-0.4h11.7C167.9-78.7,168.2-78.6,168.4-78.5z"/>
				<path class="st3" d="M182-78.7c0.3,0,0.6,0.1,0.9,0.2c0.3,0.1,0.5,0.3,0.7,0.5c0.2,0.2,0.4,0.4,0.5,0.7c0.1,0.3,0.2,0.6,0.2,0.9
					v11c0,0.1,0,0.2-0.1,0.3S184-65,183.9-65h-2.7c-0.1,0-0.2,0-0.3-0.1s-0.1-0.2-0.1-0.3v-3.5c0-0.1,0-0.2-0.1-0.3
					s-0.2-0.1-0.3-0.1h-3.8c-0.1,0-0.2,0-0.3,0.1s-0.1,0.2-0.1,0.3v3.5c0,0.2-0.1,0.4-0.4,0.4h-2.7c-0.2,0-0.4-0.1-0.4-0.4v-11
					c0-0.3,0.1-0.6,0.2-0.9c0.1-0.3,0.3-0.5,0.5-0.7c0.2-0.2,0.4-0.4,0.7-0.5c0.3-0.1,0.6-0.2,0.9-0.2H182z M180.9-72.2v-3.4h-4.6
					v3.4H180.9z"/>
				<path class="st3" d="M196.5-78.6c0.1,0.1,0.1,0.2,0.1,0.3v11c0,0.3-0.1,0.6-0.2,0.9c-0.1,0.3-0.3,0.5-0.5,0.7
					c-0.2,0.2-0.4,0.4-0.7,0.5c-0.3,0.1-0.6,0.2-0.9,0.2h-5.8c-0.3,0-0.6-0.1-0.9-0.2c-0.3-0.1-0.5-0.3-0.7-0.5
					c-0.2-0.2-0.4-0.4-0.5-0.7c-0.1-0.3-0.2-0.6-0.2-0.9v-4.2c0-0.2,0.1-0.4,0.4-0.4h2.7c0.2,0,0.4,0.1,0.4,0.4v2.8
					c0,0.1,0,0.2,0.1,0.3s0.2,0.1,0.3,0.1h2.8c0.1,0,0.2,0,0.3-0.1s0.1-0.1,0.1-0.3v-9.6c0-0.1,0-0.2,0.1-0.3s0.1-0.1,0.3-0.1h2.7
					C196.4-78.7,196.5-78.6,196.5-78.6z"/>
				<path class="st3" d="M208.8-78.7c0.3,0,0.6,0.1,0.9,0.2c0.3,0.1,0.5,0.3,0.7,0.5c0.2,0.2,0.4,0.4,0.5,0.7
					c0.1,0.3,0.2,0.6,0.2,0.9v9.1c0,0.3-0.1,0.6-0.2,0.9c-0.1,0.3-0.3,0.5-0.5,0.7c-0.2,0.2-0.4,0.4-0.7,0.5
					c-0.3,0.1-0.6,0.2-0.9,0.2h-6.9c-0.3,0-0.6-0.1-0.9-0.2c-0.3-0.1-0.5-0.3-0.7-0.5s-0.4-0.4-0.5-0.7s-0.2-0.6-0.2-0.9v-9.1
					c0-0.3,0.1-0.6,0.2-0.9c0.1-0.3,0.3-0.5,0.5-0.7s0.5-0.4,0.7-0.5c0.3-0.1,0.6-0.2,0.9-0.2H208.8z M207.6-75.4H203v7h4.6V-75.4z"
					/>
				<path class="st3" d="M226-65.4c0.1,0.1,0.1,0.2,0,0.2c0,0.1-0.1,0.1-0.2,0.1h-3.1c-0.1,0-0.2,0-0.3-0.1s-0.2-0.1-0.2-0.2
					l-2.1-3.7c0-0.1-0.1-0.1-0.1-0.1h-2.3c-0.1,0-0.1,0-0.1,0.1v3.6c0,0.2-0.1,0.4-0.4,0.4h-2.7c-0.2,0-0.4-0.1-0.4-0.4v-12.9
					c0-0.2,0.1-0.4,0.4-0.4h8.8c0.3,0,0.6,0.1,0.9,0.2c0.3,0.1,0.5,0.3,0.7,0.5s0.4,0.4,0.5,0.7s0.2,0.6,0.2,0.9v5.1
					c0,0.5-0.1,0.9-0.4,1.3c-0.3,0.4-0.7,0.7-1.1,0.8H224c-0.1,0-0.1,0.1-0.1,0.1l0,0L226-65.4z M222.1-75.5h-4.7v3.3h4.7V-75.5z"/>
				<path class="st3" d="M244.3-68.4c0.1,0,0.2,0,0.3,0.1s0.1,0.2,0.1,0.3v2.6c0,0.1,0,0.2-0.1,0.3s-0.2,0.1-0.3,0.1h-8.4
					c-0.2,0-0.4-0.1-0.4-0.4v-12.9c0-0.2,0.1-0.4,0.4-0.4h2.7c0.2,0,0.4,0.1,0.4,0.4v9.6c0,0.1,0,0.2,0.1,0.3s0.2,0.1,0.3,0.1h4.9
					V-68.4z"/>
				<path class="st3" d="M256.8-78.6c0.1,0.1,0.1,0.2,0.1,0.3v1.1v0.6v0.8c0,0.1,0,0.2-0.1,0.3c-0.1,0.1-0.2,0.1-0.3,0.1h-1.4h-4
					H250c-0.1,0-0.1,0-0.1,0.1v2.1c0,0.1,0,0.1,0.1,0.1h5.6c0.1,0,0.2,0,0.3,0.1c0.1,0.1,0.1,0.2,0.1,0.3v1.9c0,0.1,0,0.2-0.1,0.3
					c-0.1,0.1-0.1,0.1-0.3,0.1H250c-0.1,0-0.1,0-0.1,0.1v1l0,0v1.1c0,0.1,0,0.1,0.1,0.1h0.8h4.4h1.3c0.1,0,0.2,0,0.3,0.1
					c0.1,0.1,0.1,0.2,0.1,0.3v0.8v1v0.6c0,0.1,0,0.2-0.1,0.3c-0.1,0.1-0.2,0.1-0.3,0.1h-1.1H248h-1.2c-0.2,0-0.4-0.1-0.4-0.4V-66
					v-11.3v-0.9c0-0.1,0-0.2,0.1-0.3s0.2-0.1,0.3-0.1h1.4h7.6h0.6C256.7-78.7,256.8-78.6,256.8-78.6z"/>
				<path class="st3" d="M269.2-78.7c0.3,0,0.6,0.1,0.9,0.2c0.3,0.1,0.5,0.3,0.7,0.5s0.4,0.4,0.5,0.7s0.2,0.6,0.2,0.9v11
					c0,0.1,0,0.2-0.1,0.3c-0.1,0.1-0.2,0.1-0.3,0.1h-2.7c-0.1,0-0.2,0-0.3-0.1s-0.1-0.2-0.1-0.3v-3.5c0-0.1,0-0.2-0.1-0.3
					s-0.2-0.1-0.3-0.1h-3.8c-0.1,0-0.2,0-0.3,0.1c-0.1,0.1-0.1,0.2-0.1,0.3v3.5c0,0.2-0.1,0.4-0.4,0.4h-2.7c-0.2,0-0.4-0.1-0.4-0.4
					v-11c0-0.3,0.1-0.6,0.2-0.9c0.1-0.3,0.3-0.5,0.5-0.7c0.2-0.2,0.4-0.4,0.7-0.5s0.6-0.2,0.9-0.2H269.2z M268-72.2v-3.4h-4.6v3.4
					H268z"/>
				<path class="st3" d="M285.8-72.4c0.1,0.1,0.1,0.2,0.1,0.3v4.8c0,0.3-0.1,0.6-0.2,0.9c-0.1,0.3-0.3,0.5-0.5,0.7s-0.4,0.4-0.7,0.5
					c-0.3,0.1-0.6,0.2-0.9,0.2h-6.9c-0.3,0-0.6-0.1-0.9-0.2c-0.3-0.1-0.5-0.3-0.7-0.5s-0.4-0.4-0.5-0.7s-0.2-0.6-0.2-0.9v-9.1
					c0-0.3,0.1-0.6,0.2-0.9c0.1-0.3,0.3-0.5,0.5-0.7s0.5-0.4,0.7-0.5c0.3-0.1,0.6-0.2,0.9-0.2h8c0.1,0,0.2,0,0.3,0.1
					s0.1,0.2,0.1,0.3v2.6c0,0.1,0,0.2-0.1,0.3s-0.2,0.1-0.3,0.1h-6.5c-0.1,0-0.2,0-0.3,0.1s-0.1,0.1-0.1,0.3v6.3
					c0,0.1,0,0.2,0.1,0.3s0.2,0.1,0.3,0.1h3.8c0.1,0,0.2,0,0.3-0.1c0.1-0.1,0.1-0.1,0.1-0.3V-72c0-0.1,0-0.2,0.1-0.3
					c0.1-0.1,0.2-0.1,0.3-0.1h2.7C285.6-72.5,285.7-72.5,285.8-72.4z"/>
				<path class="st3" d="M300.1-78.6c0.1,0.1,0.1,0.2,0.1,0.3v11c0,0.3-0.1,0.6-0.2,0.9c-0.1,0.3-0.3,0.5-0.5,0.7
					c-0.2,0.2-0.4,0.4-0.7,0.5s-0.6,0.2-0.9,0.2H291c-0.3,0-0.6-0.1-0.9-0.2c-0.3-0.1-0.5-0.3-0.7-0.5c-0.2-0.2-0.4-0.4-0.5-0.7
					c-0.1-0.3-0.2-0.6-0.2-0.9v-11c0-0.2,0.1-0.4,0.4-0.4h2.7c0.2,0,0.4,0.1,0.4,0.4v9.6c0,0.1,0,0.2,0.1,0.3
					c0.1,0.1,0.2,0.1,0.3,0.1h3.8c0.1,0,0.2,0,0.3-0.1s0.1-0.1,0.1-0.3v-9.6c0-0.1,0-0.2,0.1-0.3s0.2-0.1,0.3-0.1h2.7
					C299.9-78.7,300-78.6,300.1-78.6z"/>
				<path class="st3" d="M313.6-78.6c0.1,0.1,0.1,0.2,0.1,0.3v1.1v0.6v0.8c0,0.1,0,0.2-0.1,0.3s-0.2,0.1-0.3,0.1h-1.4h-4h-1.1
					c-0.1,0-0.1,0-0.1,0.1v2.1c0,0.1,0,0.1,0.1,0.1h5.6c0.1,0,0.2,0,0.3,0.1s0.1,0.2,0.1,0.3v1.9c0,0.1,0,0.2-0.1,0.3
					s-0.1,0.1-0.3,0.1h-5.6c-0.1,0-0.1,0-0.1,0.1v1l0,0v1.1c0,0.1,0,0.1,0.1,0.1h0.8h4.4h1.3c0.1,0,0.2,0,0.3,0.1s0.1,0.2,0.1,0.3
					v0.8v1v0.6c0,0.1,0,0.2-0.1,0.3s-0.2,0.1-0.3,0.1h-1.1h-7.4h-1.2c-0.2,0-0.4-0.1-0.4-0.4V-66v-11.3v-0.9c0-0.1,0-0.2,0.1-0.3
					s0.2-0.1,0.3-0.1h1.4h7.6h0.6C313.4-78.7,313.5-78.6,313.6-78.6z"/>
				<path class="st3" d="M334.4-78.7c0.1,0,0.2,0,0.3,0.1c0.1,0.1,0.1,0.2,0.1,0.3v12.9c0,0.1,0,0.2-0.1,0.3
					c-0.1,0.1-0.2,0.1-0.3,0.1h-2.7c-0.1,0-0.2,0-0.3-0.1s-0.1-0.2-0.1-0.3v-4.5c0-0.1,0-0.2-0.1-0.3s-0.1-0.1-0.3-0.1h-3.8
					c-0.1,0-0.2,0-0.3,0.1c-0.1,0.1-0.1,0.1-0.1,0.3v4.5c0,0.2-0.1,0.4-0.4,0.4h-2.7c-0.2,0-0.4-0.1-0.4-0.4v-12.9
					c0-0.2,0.1-0.4,0.4-0.4h2.7c0.2,0,0.4,0.1,0.4,0.4v4.4c0,0.2,0.1,0.4,0.4,0.4h3.8c0.1,0,0.2,0,0.3-0.1c0.1-0.1,0.1-0.2,0.1-0.3
					v-4.4c0-0.1,0-0.2,0.1-0.3c0.1-0.1,0.2-0.1,0.3-0.1L334.4-78.7L334.4-78.7z"/>
				<path class="st3" d="M347-78.7c0.3,0,0.6,0.1,0.9,0.2c0.3,0.1,0.5,0.3,0.7,0.5s0.4,0.4,0.5,0.7s0.2,0.6,0.2,0.9v11
					c0,0.1,0,0.2-0.1,0.3S349-65,348.9-65h-2.7c-0.1,0-0.2,0-0.3-0.1c-0.1-0.1-0.1-0.2-0.1-0.3v-3.5c0-0.1,0-0.2-0.1-0.3
					s-0.2-0.1-0.3-0.1h-3.8c-0.1,0-0.2,0-0.3,0.1s-0.1,0.2-0.1,0.3v3.5c0,0.2-0.1,0.4-0.4,0.4h-2.7c-0.2,0-0.4-0.1-0.4-0.4v-11
					c0-0.3,0.1-0.6,0.2-0.9c0.1-0.3,0.3-0.5,0.5-0.7s0.4-0.4,0.7-0.5c0.3-0.1,0.6-0.2,0.9-0.2H347z M345.8-72.2v-3.4h-4.6v3.4H345.8
					z"/>
				<path class="st3" d="M355.8-75.3c-0.1,0.1-0.1,0.1-0.1,0.3v6.3c0,0.1,0,0.2,0.1,0.3s0.2,0.1,0.3,0.1h6.2c0.1,0,0.2,0,0.3,0.1
					c0.1,0.1,0.1,0.2,0.1,0.3v2.6c0,0.1,0,0.2-0.1,0.3s-0.2,0.1-0.3,0.1h-4.1h-3.3h-0.3c-0.3,0-0.6-0.1-0.9-0.2
					c-0.3-0.1-0.5-0.3-0.7-0.5s-0.4-0.4-0.5-0.7s-0.2-0.6-0.2-0.9v-0.4V-69v-4.5v-1.3v-1.5c0-0.3,0.1-0.6,0.2-0.9
					c0.1-0.3,0.3-0.5,0.5-0.7s0.5-0.4,0.7-0.5c0.3-0.1,0.6-0.2,0.9-0.2h0.3h7.4c0.1,0,0.2,0,0.3,0.1c0.1,0.1,0.1,0.2,0.1,0.3v2.6
					c0,0.1,0,0.2-0.1,0.3s-0.2,0.1-0.3,0.1h-6.2C356-75.4,355.9-75.3,355.8-75.3z"/>
				<path class="st3" d="M373.5-73v0.1l4.5,7.4c0.1,0.1,0.1,0.2,0,0.2c0,0.1-0.1,0.1-0.2,0.1h-3.2c-0.1,0-0.2,0-0.3-0.1
					c-0.1-0.1-0.2-0.1-0.2-0.2l-2.9-5.3c0-0.1-0.1-0.1-0.1,0l-1.6,1.8c-0.1,0.1-0.1,0.2-0.2,0.3c0,0.1-0.1,0.2-0.1,0.3v2.9
					c0,0.2-0.1,0.4-0.4,0.4h-2.7c-0.2,0-0.4-0.1-0.4-0.4v-12.9c0-0.2,0.1-0.4,0.4-0.4h2.7c0.2,0,0.4,0.1,0.4,0.4v5.8l5-5.9
					c0.1-0.1,0.2-0.1,0.3-0.2c0.1-0.1,0.2-0.1,0.3-0.1h3.2c0.1,0,0.2,0,0.2,0.1s0,0.1-0.1,0.2L373.5-73z"/>
				<path class="st3" d="M384-65.5c0,0.2-0.1,0.4-0.4,0.4h-2.7c-0.2,0-0.4-0.1-0.4-0.4v-12.9c0-0.2,0.1-0.4,0.4-0.4h2.7
					c0.2,0,0.4,0.1,0.4,0.4V-65.5z"/>
				<path class="st3" d="M397-78.5c0.3,0.1,0.5,0.3,0.7,0.5s0.4,0.4,0.5,0.7s0.2,0.6,0.2,0.9v11c0,0.1,0,0.2-0.1,0.3
					S398.1-65,398-65h-2.7c-0.1,0-0.2,0-0.3-0.1c-0.1-0.1-0.1-0.2-0.1-0.3V-75c0-0.1,0-0.2-0.1-0.3s-0.2-0.1-0.3-0.1h-3.8
					c-0.1,0-0.2,0-0.3,0.1c-0.1,0.1-0.1,0.1-0.1,0.3v9.6c0,0.2-0.1,0.4-0.4,0.4h-2.7c-0.2,0-0.4-0.1-0.4-0.4v-12.9
					c0-0.2,0.1-0.4,0.4-0.4h8.8C396.5-78.7,396.8-78.6,397-78.5z"/>
				<path class="st3" d="M412.8-72.4c0.1,0.1,0.1,0.2,0.1,0.3v4.8c0,0.3-0.1,0.6-0.2,0.9c-0.1,0.3-0.3,0.5-0.5,0.7s-0.4,0.4-0.7,0.5
					c-0.3,0.1-0.6,0.2-0.9,0.2h-6.9c-0.3,0-0.6-0.1-0.9-0.2c-0.3-0.1-0.5-0.3-0.7-0.5s-0.4-0.4-0.5-0.7s-0.2-0.6-0.2-0.9v-9.1
					c0-0.3,0.1-0.6,0.2-0.9c0.1-0.3,0.3-0.5,0.5-0.7s0.5-0.4,0.7-0.5c0.3-0.1,0.6-0.2,0.9-0.2h8c0.1,0,0.2,0,0.3,0.1
					c0.1,0.1,0.1,0.2,0.1,0.3v2.6c0,0.1,0,0.2-0.1,0.3s-0.2,0.1-0.3,0.1h-6.5c-0.1,0-0.2,0-0.3,0.1s-0.1,0.1-0.1,0.3v6.3
					c0,0.1,0,0.2,0.1,0.3s0.2,0.1,0.3,0.1h3.8c0.1,0,0.2,0,0.3-0.1c0.1-0.1,0.1-0.1,0.1-0.3V-72c0-0.1,0-0.2,0.1-0.3
					s0.2-0.1,0.3-0.1h2.7C412.6-72.5,412.7-72.5,412.8-72.4z"/>
			</g>
		</g>
		<g>
			<path class="st3" d="M237.4-172.3c1.8,0.8,3.3,1.8,4.5,3.1c1.3,1.3,2.3,2.8,3.1,4.5c0.8,1.8,1.2,3.6,1.2,5.6v71.3
				c0,0.7-0.2,1.2-0.7,1.7c-0.5,0.4-1,0.7-1.7,0.7h-17.1c-0.7,0-1.2-0.2-1.6-0.7c-0.4-0.4-0.6-1-0.6-1.7v-64.8h-13.7v64.8
				c0,0.7-0.2,1.2-0.6,1.7c-0.4,0.4-0.9,0.7-1.6,0.7h-15.5c-0.7,0-1.2-0.2-1.7-0.7c-0.5-0.4-0.7-1-0.7-1.7v-64.8h-13.6v64.8
				c0,1.6-0.8,2.3-2.3,2.3h-17c-1.6,0-2.3-0.8-2.3-2.3v-83.3c0-1.6,0.8-2.3,2.3-2.3h74C233.8-173.4,235.6-173.1,237.4-172.3z"/>
			<path class="st3" d="M237.4-172.3c1.8,0.8,3.3,1.8,4.5,3.1c1.3,1.3,2.3,2.8,3.1,4.5c0.8,1.8,1.2,3.6,1.2,5.6v6.4l-21.6,0.1h-13.7
				h-20h-13.8l-21.6-0.1v-18.4c0-1.6,0.8-2.3,2.3-2.3h74C233.8-173.4,235.6-173.1,237.4-172.3z"/>
		</g>
		<g>
			<path class="st3" d="M320.6-106.8c0.7,0,1.3,0.2,1.7,0.7c0.4,0.5,0.7,1,0.7,1.7v16.6c0,0.7-0.2,1.2-0.7,1.7
				c-0.4,0.5-1,0.7-1.7,0.7h-58.4c-1.6,0-2.5-0.8-2.5-2.4v-83.3c0-1.6,0.8-2.4,2.5-2.4h17.9c1.6,0,2.5,0.8,2.5,2.4v62
				c0,0.7,0.2,1.2,0.7,1.6s1.1,0.6,1.8,0.6L320.6-106.8L320.6-106.8z"/>
			<path class="st3" d="M282.4-85.4h-20.2c-1.6,0-2.5-0.8-2.5-2.4v-83.3c0-1.6,0.8-2.4,2.5-2.4H280c1.6,0,2.5,0.8,2.5,2.4v62
				C282.5-108.4,282.4-85.4,282.4-85.4z"/>
		</g>
		<g>
			<path class="st3" d="M410.4-173.4c0.7,0,1.3,0.2,1.8,0.7s0.7,1,0.7,1.7v83.5c0,0.7-0.2,1.2-0.7,1.7s-1.1,0.7-1.8,0.7h-18.2
				c-0.7,0-1.3-0.2-1.8-0.7s-0.7-1-0.7-1.7v-29.1c0-0.7-0.2-1.2-0.7-1.6c-0.4-0.4-1-0.6-1.7-0.6h-25.5c-0.7,0-1.3,0.2-1.8,0.6
				s-0.7,1-0.7,1.6v29.1c0,1.6-0.8,2.4-2.5,2.4h-18c-1.7,0-2.5-0.8-2.5-2.4V-171c0-1.6,0.8-2.4,2.5-2.4h18c1.7,0,2.5,0.8,2.5,2.4
				v28.2c0,1.6,0.8,2.4,2.5,2.4h25.5c0.7,0,1.3-0.2,1.7-0.7c0.4-0.5,0.7-1,0.7-1.7V-171c0-0.7,0.2-1.2,0.7-1.7s1.1-0.7,1.8-0.7
				H410.4z"/>
			<path class="st3" d="M359.4-116.7v29.1c0,1.6-0.8,2.4-2.5,2.4h-18c-1.7,0-2.5-0.8-2.5-2.4V-171c0-1.6,0.8-2.4,2.5-2.4h18
				c1.7,0,2.5,0.8,2.5,2.4v28.2C359.4-141.2,359.4-117.4,359.4-116.7z"/>
			<path class="st3" d="M410.4-173.4c0.7,0,1.3,0.2,1.8,0.7s0.7,1,0.7,1.7v83.5c0,0.7-0.2,1.2-0.7,1.7s-1.1,0.7-1.8,0.7h-18.2
				c-0.7,0-1.3-0.2-1.8-0.7s-0.7-1-0.7-1.7v-29.1c0-0.7,0-25.4,0-26.1V-171c0-0.7,0.2-1.2,0.7-1.7s1.1-0.7,1.8-0.7H410.4z"/>
		</g>
	</g>
	<g>
		<path class="st3" d="M232.1,183.5v158.8c0,3-1.5,4.6-4.6,4.6h-33.1c-3,0-4.6-1.5-4.6-4.6V223.8c0-0.6-0.4-0.9-1.1-0.8
			c-0.7,0.1-1.6,0.5-2.5,1.3l-11.8,9.1c-1,0.8-1.8,1-2.5,0.6c-0.7-0.4-1.1-1.2-1.1-2.5v-33.6c0-1.3,0.4-2.6,1.1-4
			c0.7-1.4,1.6-2.4,2.5-3.2l11.8-9.1c1-0.8,2.2-1.4,3.8-1.9s3-0.7,4.3-0.7h5.5h27.6C230.6,178.9,232.1,180.5,232.1,183.5z"/>
		<path class="st3" d="M387.1,255.9c-0.8,0.8-1.6,1.8-2.4,3s-1.2,2.4-1.2,3.7c0.2,1.3,0.6,2.6,1.4,3.8c0.8,1.3,1.6,2.4,2.4,3.4
			l2.2,2.4l1.9,2.6l3.1,3.4c0.8,1,1.5,2.2,2,3.7c0.6,1.5,0.8,2.9,0.8,4.2v22.3v10.3c0,0.8,0,1.6-0.1,2.3s-0.2,1.5-0.4,2.3
			c0,0.5-0.1,0.9-0.2,1.2c-0.2,1.3-0.6,2.6-1.2,4.1c-0.2,0.5-0.4,1-0.7,1.7c-0.5,1.1-1,2.2-1.7,3.4c-0.3,0.3-0.5,0.6-0.5,1
			c-0.2,0.2-0.3,0.2-0.4,0.2s-0.2,0.1-0.4,0.2c-0.3,0.6-0.6,1.1-1,1.4c-0.2,0.5-0.5,0.8-1,1c-0.2,0.3-0.5,0.7-1,1.2l-1,1
			c-0.3,0.2-0.6,0.4-1,0.7c-0.3,0.3-0.6,0.5-0.7,0.6c-0.2,0.1-0.4,0.3-0.7,0.6c-0.2,0.2-0.3,0.2-0.4,0.2s-0.2,0.1-0.4,0.2l-1,0.5
			c-1.3,0.8-2.7,1.6-4.2,2.3s-3.2,1.2-4.9,1.6h-1.2c-0.8,0.2-1.5,0.3-2.2,0.4c-0.6,0.1-1.4,0.1-2.2,0.1h-72.4
			c-1.3,0-2.2-0.1-2.9-0.2c-3.5-0.3-6.8-1.3-9.8-2.9c-3-1.6-5.7-3.6-8-6.1c-2.3-2.5-4.1-5.3-5.4-8.5c-1.3-3.2-1.9-6.6-1.9-10.3
			v-10.3v-22.3c0-1.3,0.3-2.7,0.8-4.2c0.6-1.5,1.2-2.8,2-3.7l2.9-3.4l2.2-2.6l2.2-2.4c0.8-1,1.6-2.1,2.4-3.4s1.2-2.6,1.2-3.8
			c0.2-1.3-0.2-2.5-1-3.7c-0.8-1.2-1.6-2.2-2.4-3l-2.4-3.1l-5.3-6.7c-0.8-1-1.4-2.2-1.9-3.7s-0.7-2.9-0.7-4.2V207
			c0-3.8,0.7-7.5,2.2-10.9c1.4-3.4,3.4-6.4,6-8.9s5.6-4.5,9-6s7.1-2.3,10.9-2.3h25.9h9.4h17.8H369c3.8,0,7.5,0.8,10.9,2.3
			s6.4,3.5,8.9,6s4.5,5.4,6,8.9c1.5,3.4,2.3,7.1,2.3,10.9v31.2c0,1.3-0.3,2.7-0.8,4.2c-0.6,1.5-1.2,2.8-2,3.7l-5,6.7L387.1,255.9z
			 M357.3,215.4h-48.7v6.2v19.2v4.6h4.6h21.1H353h4.3v-4.6v-19.2V215.4z M357.3,277.3h-48.7v3.1v28.1v1.7h48.7v-1.7v-28.1V277.3z"/>
	</g>
</g>
</svg>
