<?xml version="1.0" encoding="utf-8"?>
<!-- Generator: Adobe Illustrator 24.3.0, SVG Export Plug-In . SVG Version: 6.00 Build 0)  -->
<svg version="1.1" id="Layer_1" xmlns="http://www.w3.org/2000/svg" xmlns:xlink="http://www.w3.org/1999/xlink" x="0px" y="0px"
	 viewBox="0 0 165.9 125.4" style="enable-background:new 0 0 165.9 125.4;" xml:space="preserve">
<style type="text/css">
	.st0{fill-rule:evenodd;clip-rule:evenodd;fill:#FFFFFF;}
	.st1{fill-rule:evenodd;clip-rule:evenodd;fill:#FB5252;}
	.st2{fill-rule:evenodd;clip-rule:evenodd;fill:#1E3046;}
</style>
<desc>Created with Sketch.</desc>
<g id="Page-3">
	<g id="Logo-with-text-Copy">
		<ellipse id="Oval-1" class="st0" cx="115" cy="26.4" rx="14" ry="12.5"/>
		<path id="Combined-Shape" class="st1" d="M117,6.6c1.5,0.6,3,1.3,4.4,2c1.8-1.9,4.3-3,6.9-3c1.4,2.2,1.9,5,1.3,7.6
			c17.3,10.8,30.3,27.6,36.2,47.5l-6.4,0C154.1,49,142.3,41,128.7,41C110,41,94.8,56.1,94.8,74.7c0,3.4,0.5,6.7,1.4,9.8H85V74.1
			h-3.4v10.4H71.4V74.1H58v10.4H47.8V74.1h-3.4v10.4H34.2l0,0V74.1h-6.7v10.4H0C0,38,37.9,0.3,84.7,0.3c8.3,0,16.3,1.2,23.9,3.4
			c1.1-1.6,2.7-2.9,4.5-3.7C115.1,1.6,116.6,4,117,6.6L117,6.6z M114.8,34.3c4.7,0,8.5-3.8,8.5-8.4s-3.8-8.4-8.5-8.4
			s-8.5,3.8-8.5,8.4S110.1,34.3,114.8,34.3z M117.9,31.9c-1.9,0-3.4-1.5-3.4-3.4c0-1.9,1.5-3.4,3.4-3.4c1.9,0,3.4,1.5,3.4,3.4
			C121.2,30.4,119.7,31.9,117.9,31.9z"/>
		<path id="BUGSEE" class="st2" d="M0.3,124.9V92.2h11.2c1.8,0,3.4,0.2,4.8,0.5s2.6,0.9,3.6,1.6s1.7,1.6,2.2,2.8s0.8,2.4,0.8,4
			c0,1.5-0.4,2.8-1.2,4s-2,2.1-3.5,2.8c0.9,0.3,1.8,0.6,2.5,1.1c0.7,0.5,1.3,1.1,1.7,1.7s0.8,1.4,1,2.2s0.3,1.6,0.3,2.5
			c0,1.6-0.3,3-0.8,4.1s-1.3,2.2-2.2,3s-2.2,1.4-3.6,1.8c-1.4,0.4-3,0.6-4.8,0.6H0.3z M6,110.2v10.2h6.3c0.9,0,1.7-0.1,2.5-0.4
			s1.3-0.6,1.8-1s0.8-1,1.1-1.6s0.4-1.3,0.4-2c0-1.6-0.4-2.9-1.3-3.8s-2.2-1.4-4.2-1.4H6z M6,106h5.6c1.8,0,3.1-0.4,4.1-1.2
			s1.5-1.9,1.5-3.4c0-1.6-0.5-2.8-1.4-3.5s-2.4-1.1-4.3-1.1H6V106z M53.3,92.2v21.9c0,1.9-0.3,3.5-1,4.9s-1.5,2.6-2.6,3.5
			s-2.4,1.7-3.9,2.1s-3.1,0.7-4.8,0.7c-1.8,0-3.4-0.2-4.9-0.7s-2.8-1.2-3.9-2.1s-1.9-2.1-2.6-3.5s-0.9-3-0.9-4.9V92.2h5.7v21.9
			c0,1.2,0.2,2.2,0.5,3s0.7,1.5,1.3,2.1c0.6,0.6,1.3,1,2.1,1.2s1.7,0.4,2.7,0.4s1.9-0.1,2.7-0.4s1.5-0.7,2.1-1.2
			c0.6-0.6,1-1.3,1.3-2.1s0.5-1.9,0.5-3V92.2H53.3z M84.4,120.7c-0.3,0.4-0.8,0.9-1.4,1.5s-1.4,1.1-2.4,1.5s-2.1,0.9-3.5,1.2
			s-2.9,0.5-4.8,0.5c-2.1,0-3.9-0.4-5.6-1.1s-3.2-1.7-4.4-3.1s-2.2-3-2.9-4.9s-1-4.2-1-6.7v-2.2c0-2.5,0.3-4.7,0.9-6.7
			c0.6-2,1.5-3.6,2.7-5s2.6-2.4,4.2-3.1s3.5-1.1,5.7-1.1c2,0,3.7,0.3,5.2,0.8s2.7,1.2,3.8,2.2s1.8,2,2.4,3.3c0.6,1.3,1,2.7,1.2,4.2
			h-5.6c-0.1-0.9-0.4-1.6-0.7-2.4s-0.7-1.3-1.3-1.9s-1.2-0.9-2-1.2c-0.8-0.3-1.8-0.4-2.9-0.4c-1.3,0-2.5,0.2-3.5,0.7
			s-1.8,1.2-2.4,2.2s-1.1,2.1-1.5,3.5s-0.5,3-0.5,4.7v2.2c0,1.8,0.2,3.4,0.6,4.8s0.9,2.5,1.7,3.5s1.6,1.7,2.7,2.2s2.2,0.7,3.5,0.7
			c1,0,1.8-0.1,2.5-0.2s1.3-0.3,1.8-0.5s0.9-0.4,1.2-0.6s0.6-0.5,0.8-0.7v-6.4H72v-4.3h12.4V120.7z M107.7,116.5
			c0-0.7-0.1-1.2-0.3-1.8s-0.6-1-1.1-1.4s-1.2-0.8-2.1-1.2s-2.1-0.8-3.5-1.2c-1.6-0.5-3-1-4.3-1.6c-1.3-0.6-2.5-1.3-3.4-2.1
			s-1.7-1.7-2.2-2.7s-0.8-2.2-0.8-3.5c0-1.3,0.3-2.5,0.8-3.6s1.4-2.1,2.4-2.9s2.2-1.4,3.7-1.9s3-0.7,4.7-0.7c1.8,0,3.5,0.3,5,0.8
			s2.7,1.3,3.7,2.2c1,0.9,1.8,2,2.3,3.2c0.5,1.2,0.8,2.5,0.8,3.9h-5.7c0-0.8-0.1-1.5-0.4-2.2c-0.2-0.7-0.6-1.2-1.1-1.7
			s-1.2-0.9-1.9-1.1s-1.7-0.4-2.8-0.4c-1,0-1.9,0.1-2.6,0.3s-1.3,0.5-1.8,0.9S96.3,98.5,96,99c-0.2,0.6-0.3,1.2-0.3,1.8
			c0,1.2,0.6,2.2,1.7,3s2.9,1.6,5.2,2.2c1.8,0.5,3.4,1.1,4.8,1.8s2.5,1.4,3.4,2.2c0.9,0.8,1.6,1.8,2,2.8s0.7,2.2,0.7,3.5
			c0,1.4-0.3,2.6-0.8,3.7s-1.3,2-2.3,2.8c-1,0.8-2.2,1.4-3.7,1.8s-3,0.6-4.8,0.6c-1.6,0-3.1-0.2-4.6-0.6s-2.9-1.1-4.1-1.9
			s-2.2-1.9-2.9-3.2s-1.1-2.8-1.1-4.5h5.7c0,1,0.2,1.9,0.6,2.7s0.9,1.3,1.5,1.8s1.4,0.8,2.3,1s1.8,0.3,2.8,0.3c2,0,3.5-0.4,4.5-1.2
			S107.7,117.8,107.7,116.5z M137.5,110.3h-13.4v10.1h15.7v4.5h-21.4V92.2h21.2v4.6h-15.5v9h13.4V110.3z M163.5,110.3h-13.4v10.1
			h15.7v4.5h-21.4V92.2h21.2v4.6h-15.5v9h13.4V110.3z"/>
	</g>
</g>
</svg>
