<svg id="Layer_1" data-name="Layer 1" xmlns="http://www.w3.org/2000/svg" viewBox="0 0 738.91 989.96"><defs><style>.cls-1{fill:#fff;}</style></defs><path class="cls-1" d="M778.51,798.74C735.38,859,674.17,890.19,602.13,904c1.8,12.45,3.86,24.72,5.25,37.07a122,122,0,0,1,.78,22.83c-1.39,17.78-14.49,25.65-30.51,17.9a98.82,98.82,0,0,1-23.95-15.94c-14-13-27.05-27.08-40.47-40.73-1.15-1.16-2.22-2.39-4.19-4.53-5.55,14.7-10.54,28.69-16.14,42.43a109.05,109.05,0,0,1-10.22,19.87c-9.34,13.85-25.21,17.17-40,9.33C431,986,424.52,975.8,421,963.66A179.89,179.89,0,0,1,416,940.3c-1.2-7.88-1.63-15.87-2.49-24.75-4.91,4.25-9.81,8.07-14.22,12.39-13.71,13.44-26.26,27.72-35.39,44.9-8.49,16-29.5,17.41-41.67,3.4-6.72-7.73-9.51-17-10.25-27-1.53-20.53,1.83-40.48,7.51-60.11.76-2.62,1-4.31-1.53-6.38a293.07,293.07,0,0,1-60.71-67.87c-.33-.52-.75-1-1.24-1.61-8,8.82-15.33,17.92-23.75,25.87S215.05,855,205.21,860.93c-27.24,16.49-58.32-4.31-62.38-31.22-2.75-18.19,1.59-35.11,8-51.6,11.5-29.63,29-55.34,53-76.35,5.71-5,12.55-8.7,18.69-13.23,1.62-1.21,3.48-3.2,3.72-5,4.66-35.57,19.73-66.67,40.35-95.47,4.16-5.81,7.73-12.06,12-17.77,9-12,8.5-24.92,4.71-38.48-6.44-23-18.81-43.16-29.8-64-8.36-15.86-16.7-31.73-24.58-47.83-2.93-6-4.29-12.72-1.3-19.33,3.5-7.73,11.74-12.79,20.43-11a136.17,136.17,0,0,1,24.55,7.84c9.2,3.77,18,8.55,27,12.82,1.9.91,3.93,1.53,7.3,2.81-1.75-5.88-2.89-10.68-4.58-15.27-7.2-19.46-14.82-38.77-21.71-58.34a68,68,0,0,1-3.36-19.08c-1.11-23.29,20.89-37.09,41.8-26.55,13.22,6.66,23.26,17.1,33.15,27.72,12.14,13,24,26.36,36.48,39.08,6.15,6.28,13.29,11.68,22.24,13.72,1.9.44,3.89.52,6.78.89-6.42-16.49-12.38-32.29-18.7-47.94-10.7-26.51-24.54-51.3-42.44-73.62a90.84,90.84,0,0,0-17-16c-12.15-8.94-24.93-7.38-36.68.81-8.29,5.78-15.83,12.68-23.45,19.37-11.52,10.11-22.72,20.81-37.21,26.52-21.22,8.37-43.3,13-66.24,12.56a36,36,0,0,1-8.85-1.4c-13.79-3.86-18.91-16.37-12.12-29,7.89-14.67,19.15-26.46,32.21-36.4,18.14-13.8,36.79-26.95,55.24-40.34,14.33-10.41,28.19-21.41,38.85-35.71,4.63-6.21,8.25-13.22,11.87-20.1,2.48-4.7,1.38-9.89-1.7-13.69a138.94,138.94,0,0,0-17.3-18.4c-9.82-8.39-21.46-13.78-33.9-17.38-4.1-1.19-7.59-.71-10.45,2.53-3.95,4.49-7.9,9-11.71,13.6-5.41,6.54-10.17,13.71-16.14,19.67-13.2,13.15-29.62,18.29-47.92,15.6-11.16-1.65-16.66-12.55-11.81-22.77,11.61-24.48,23-49.14,40.07-70.51,10.66-13.32,23.25-24.16,39-31.21,17.59-7.89,34.62-6,51.46,2.19,13.29,6.46,25,15.2,35.89,25.08,39,35.35,73.81,74.59,107.74,114.68q85.58,101.08,171.28,202.06c3.34,3.93,6.74,7.85,10.44,11.44a6.15,6.15,0,0,0,5,1.29,57.1,57.1,0,0,0,9.73-3.78c7.69-3.56,12.6-8.86,13.77-18,2.34-18.15,5.15-36.26,8.65-54.21a70.79,70.79,0,0,1,8.1-22.27c7.31-12.33,22-13.52,30.8-2.17,5.65,7.3,9.72,16.25,12.76,25.07,8.55,24.77,10.84,51,16.7,76.41,6.82,29.6,15.85,58.68,23.93,88,.49,1.76,1.13,3.48,1.59,5.24a135.1,135.1,0,0,0,23.15,47.89c26.44,35.4,46.67,74.25,57.07,117.62,1.82,7.59,2.84,15.37,4.56,23a10,10,0,0,0,3.33,5.57c25.25,18.68,39.64,44.93,50.61,73.32,8.47,21.92,13,44.7,11.18,68.4-1.84,24.34-17.67,42.2-40.36,45.1-14,1.79-25.73-3.62-34.89-13.6C794.77,820,786.94,809.21,778.51,798.74ZM173.1,109.11c4-2.43,8.92-4.09,11.93-7.45,7.66-8.53,14.3-18,21.69-26.77,9.11-10.84,20.19-18.84,35.12-15.52,26.28,5.85,48.62,19,65.75,40,12.68,15.51,16.33,32.85,5.49,50.9-6.13,10.21-12.83,20.3-20.69,29.2C275.14,199,253,212.71,232.2,227.93q-19.15,14-37.59,28.92c-5,4.09-9,9.43-13.51,14.21l.86,1.35c6.23-.8,12.47-1.58,18.71-2.39,23.9-3.14,44.36-13,61.55-30.18a210.28,210.28,0,0,1,26.9-22.24,55.25,55.25,0,0,1,44.62-9.51c13.54,2.77,24.23,10.69,33.8,20.23,13,12.94,22.7,28.35,32,43.91,19.82,33.2,32.58,69.51,45.15,105.84,2.56,7.4-.43,13.35-7.63,16.89-16.17,8-32.31,6.83-47.14-2.56a158.94,158.94,0,0,1-27-22c-12.49-12.46-23.72-26.18-36-38.85-5.38-5.56-11.95-10-18.2-14.64-1.35-1-4.23-1.6-5.31-.84s-1.56,3.61-1.2,5.3c1.48,6.8,2.87,13.7,5.25,20.22,5.69,15.62,12.41,30.89,17.73,46.63,2.94,8.69,5.22,18,5.47,27.12.37,13.83-13.33,25-26.86,21.89-9.57-2.18-18.63-6.74-27.78-10.58-6.94-2.91-13.65-6.36-20.47-9.57a27,27,0,0,0,3.29,8.86c10.2,18.69,20.6,37.29,30.63,56.09,8.79,16.48,16.37,33.51,19.94,52,3.17,16.4,1.93,32.14-7.86,46.44-6.39,9.34-13,18.56-18.79,28.28-7.47,12.56-14.7,25.31-21,38.46-3.83,7.94-5.77,16.79-9,26.51,3-1.16,4.33-1.74,5.7-2.2,16.84-5.7,33.55-11.86,50.59-16.93,13.21-3.93,26.75-7,40.77-6.38,16.7.74,26.15,12.38,22.3,28.54a58.41,58.41,0,0,1-7.85,17.58c-11.42,17.76-26.14,32.75-41.08,47.55-15.86,15.71-31.39,31.74-47.19,47.51-2.46,2.47-2.58,4.32-.76,7.26A273.87,273.87,0,0,0,339,867.68c9.43,7.47,10.39,10.46,6.61,21.83-6.35,19.11-10.22,38.62-8.52,58.88.36,4.31,1,8.79,5.35,12.19,7.25-15.49,17.85-27.91,28.95-39.89,17.71-19.14,37.41-35.66,62.51-44.33,9.76-3.38,19.6-5.61,30.26-2.63,52.6,14.69,105.4,13.53,158,.07,49.24-12.62,92.47-36,125.19-75.79,37-45,50-96.73,39.78-153.87-8.16-45.73-30-85.53-57.3-122.34-9.57-12.89-17.31-26-21.51-41.66-9.15-34-19.72-67.7-28.45-101.83-5.47-21.39-8.5-43.4-12.94-65.06-1.32-6.43-3.72-12.63-5.63-18.94a7.71,7.71,0,0,0-2.08,4.26c-2.45,15.62-5.45,31.18-7.11,46.88-2,19-10.38,33.2-27.94,41.17-6.77,3.08-14,5.19-21.1,7.49-7.81,2.54-14.18.42-19.59-5.92-15.45-18.13-31.23-36-46.71-54.09-34.12-39.88-68.44-79.59-102.1-119.85-40-47.82-79.46-96.06-124.23-139.59-14.68-14.27-29.24-28.73-47.81-38.22-12-6.13-23.85-7.24-35.59.05-5.35,3.32-10.75,6.84-15.26,11.17-17.87,17.14-29.14,38.66-39.21,60.89l0,1.08ZM348,673.42a25.18,25.18,0,0,0-3.62-.28c-3.63.42-7.29.73-10.88,1.41A309.27,309.27,0,0,0,267,695.21c-14.41,6.31-29.37,12.55-41.86,21.82-25,18.59-41.72,44.14-52,73.48-3.35,9.58-5,20-6,30.1-.8,8.41,3.08,15.5,11.23,19.5,7.67,3.78,14.27.79,19.7-4.1,10.35-9.34,20.92-18.65,29.92-29.23,23.44-27.53,47.62-54.28,73.77-79.31,12.95-12.39,24.6-26.17,36.51-39.61C342,683.75,344.52,678.68,348,673.42ZM816.47,689l-1.28.59c-1.42,23.73-5.17,47.22-15.61,68.53-6,12.31-4.28,21.23,3.63,30.81,6.66,8,12.4,16.94,19.65,24.39,8.64,8.86,21.73,6.24,27.45-4.82,1.79-3.47,3.47-7.52,3.46-11.3,0-10.26,0-20.68-1.69-30.76-3.63-22.06-12.33-42.36-24.16-61.27C824.43,699.6,820.3,694.4,816.47,689Zm-336,214.06c-11-.34-21-7.49-33.1-4.85-.15,21.65-.74,42.9,8.45,62.76l1.75.14C465.13,941.92,472.71,922.72,480.46,903.08Zm96.95,4.57-44.2,1.84c9.08,12.55,42.15,45.44,51.15,46.85Q580.85,931.74,577.41,907.65Z" transform="translate(-140.46 -6.38)"/><path class="cls-1" d="M636.19,827.22c-22.94-2.1-44.75-8.75-63.51-23.6-5.17-4.09-5.42-10.6-.68-14,3.67-2.63,7.39-1.87,10.6.66,16.83,13.28,36.38,18.81,57.33,20.49,6.62.54,10.24,3.65,10,8.64s-4.2,7.92-10.7,7.8Z" transform="translate(-140.46 -6.38)"/><path class="cls-1" d="M506.79,715.08c-16.22-.1-29.59-13.61-29.37-29.7A29.89,29.89,0,0,1,507.23,656c16.11.14,29.66,13.88,29.39,29.79A29.65,29.65,0,0,1,506.79,715.08Z" transform="translate(-140.46 -6.38)"/><path class="cls-1" d="M739.16,685.66a29.56,29.56,0,0,1-59.11-.12,29.56,29.56,0,1,1,59.11.12Z" transform="translate(-140.46 -6.38)"/></svg>